<?xml version="1.0" encoding="utf-8"?>
<svg version="1.1" xmlns="http://www.w3.org/2000/svg" xmlns:xlink="http://www.w3.org/1999/xlink" x="0px" y="0px"
	 viewBox="0 0 750 500" style="enable-background:new 0 0 750 500;" xml:space="preserve">
<g id="BACKGROUND">
	<path style="opacity:0.5;fill:#AAC3FF;" d="M209.326,101.628c-15.773,80.775-221.416,43.277-81.955,338.48h458.757
		c0,0,177.591-266.17-7.729-305.233c-66.028-13.918-72.05-27.616-87.271-56.395c-25.435-48.092-80.6-69.85-140.769-70.092
		C288.266,8.139,224.551,23.656,209.326,101.628z"/>
</g>
<g id="OBJECTS">
	<g>
		<g>
			<g>
				<ellipse style="opacity:0.5;fill:#AAC3FF;" cx="535.768" cy="467.747" rx="71.131" ry="13.308"/>
				<g>
					<g>
						<g>
							<path style="fill:#081A47;" d="M566.036,437.154l-1.348,33.396c0,0-69.231,8.626-16.679-4.849l0.066-14.315L566.036,437.154z
								"/>
							<path style="fill:#92DFDC;" d="M571.008,320.513c0,0,1.37,112.081-0.439,139.25l-28.116-0.644l-8.348-148.061
								L571.008,320.513z"/>
							<path style="fill:#71C6C6;" d="M571.492,388.477c-0.077-34.686-0.484-67.964-0.484-67.964l-36.903-9.455l4.814,85.374
								C549.716,393.522,560.556,390.791,571.492,388.477z"/>
						</g>
						<g>
							<path style="fill:#081A47;" d="M529.538,432.877l-1.348,33.396c0,0-69.231,8.626-16.679-4.849l0.066-14.315L529.538,432.877z
								"/>
							<path style="fill:#71C6C6;" d="M534.51,316.236c0,0,1.37,112.081-0.439,139.25l-28.116-0.644l-8.348-148.061L534.51,316.236z
								"/>
						</g>
					</g>
					<g>
						<g>
							<g>
								<g>
									<path style="fill:#F78F8F;" d="M530.287,151.696l0.269,12.956c0,0-26.487,8.667-23.908,13.316
										c2.58,4.65,68.134,7.439,70.75-4.759c2.616-12.198-26.77-11.306-26.77-11.306l2.312-25.501L530.287,151.696z"/>
								</g>
								<g>
									<path style="fill:#92DFDC;" d="M528.21,160.194l25.901-8.231l-0.1,9.458c0,0,25.117-4.314,27.859,12.25
										c2.742,16.564-9.891,57.856-9.891,57.856l-70.945,11.357c0,0,2.317-58.047,5.883-64.376
										c3.565-6.329,20.883-13.747,20.883-13.747L528.21,160.194z"/>
									<path style="fill:#71C6C6;" d="M581.87,173.671c-2.275-13.745-17.323-8.415-23.323-8.125
										c-17.83,18.142-31.943,28.958-50.765,46.08c-2.295,11.746-4.102,22.106-4.102,22.106l68.3-2.205
										C571.979,231.527,584.612,190.235,581.87,173.671z"/>
								</g>
							</g>
							<g>
								<g>
									<g>
										<path style="fill:#FFFFFF;" d="M523.184,165.971l8.351,63.344l24.707-69.522c0,0,29.244-2.281,28.108,20.995
											c-1.135,23.276-0.42,76.084-0.42,76.084l2.266,120.939l-63.137,7.141l-2.435-52.583l-7.431,52.185l-31.117-8.13
											c0,0,10.572-160.577,14.685-189.069C500.873,158.863,523.184,165.971,523.184,165.971z"/>
									</g>
									<g style="opacity:0.5;">
										<path style="fill:#CEE2F9;" d="M583.864,198.045c-17.672,23.076-40.571,41.422-61.635,61.485
											c-11.77,11.21-23.246,22.716-34.457,34.474c-3.111,43.148-5.697,82.421-5.697,82.421l31.117,8.13l7.431-52.185
											l2.435,52.583l63.138-7.141l-2.266-120.939C583.93,256.872,583.477,223.433,583.864,198.045z"/>
									</g>
								</g>
								<g>
									<g>
										<polygon style="fill:#FFFFFF;" points="531.535,229.314 523.268,160.898 514.771,163.073 510.87,182.791 521.273,182.295 
											511.069,184.748 										"/>
										<polygon style="fill:#FFFFFF;" points="531.286,230.107 555.736,154.825 563.102,155.486 563.645,176.093 
											553.282,175.055 563.344,178.037 										"/>
									</g>
									<g>
										<g>
											<path style="fill:#AAC3FF;" d="M523.268,160.898l-8.452,2.354l0.135-0.143c-0.579,3.3-1.196,6.593-1.81,9.887
												l-1.843,9.88l-0.45-0.522l10.401-0.535l0.134,0.939l-10.195,2.49l0.347-0.715l5.074,11.161
												c1.685,3.723,3.4,7.433,5.049,11.172l4.986,11.201l4.888,11.246l-5.344-11.037l-5.247-11.082
												c-1.762-3.688-3.457-7.407-5.183-11.111l-5.159-11.122l-0.265-0.57l0.612-0.145l10.212-2.416l0.134,0.939l-10.405,0.457
												l-0.564,0.025l0.114-0.547l2.058-9.837c0.687-3.279,1.37-6.559,2.091-9.831l0.026-0.117l0.109-0.026L523.268,160.898z"/>
										</g>
										<g>
											<path style="fill:#AAC3FF;" d="M555.736,154.825l7.379,0.518l0.126,0.009l0.005,0.131l0.421,10.299l0.377,10.301
												l0.016,0.448l-0.456-0.039c-3.459-0.3-6.913-0.648-10.369-0.98l0.176-0.896l10.072,2.948l0.618,0.181l-0.338,0.552
												l-3.993,6.518l-4.03,6.495l-8.063,12.988l-8.149,12.935l-4.11,6.445l-4.134,6.43l3.88-6.587l3.904-6.572l7.88-13.1
												l7.966-13.047l3.985-6.522l4.021-6.5l0.28,0.733l-10.052-3.016l0.176-0.896c3.453,0.361,6.907,0.705,10.357,1.097
												l-0.439,0.408l-0.166-10.306l-0.122-10.307l0.131,0.14L555.736,154.825z"/>
										</g>
									</g>
								</g>
							</g>
						</g>
						<g>
							<g>
								<g>
									<path style="fill:#061533;" d="M487.452,217.994c-0.358,0.559-1.102,0.723-1.661,0.365l0,0
										c-0.56-0.358-0.723-1.101-0.365-1.661l32.394-50.657c0.358-0.559,1.102-0.723,1.661-0.365l0,0
										c0.56,0.358,0.723,1.102,0.365,1.661L487.452,217.994z"/>
									<g>
										<path style="fill:#FFBDBA;" d="M507.962,200.951c0,0-6.528-12.713-9.277-12.37c-2.749,0.344-12.37,5.498-12.37,5.498
											l13.4,17.867L507.962,200.951z"/>
										<polygon style="fill:#92DFDC;" points="519.3,207.823 507.962,198.546 497.997,211.602 521.362,224.659 										"/>
									</g>
								</g>
								<g>
									<path style="fill:#FFFFFF;" d="M563.739,159.704c0,0,22.563-2.047,26.343,11.697c3.78,13.744-18.211,77.309-37.452,77.309
										s-53.258-34.36-53.258-34.36l10.995-15.118l37.452,23.365l17.18-44.668L563.739,159.704z"/>
									<g>
										<path style="fill:#AAC3FF;" d="M590.081,171.401c0.417,1.563,0.476,3.196,0.451,4.807
											c-0.031,1.615-0.176,3.226-0.378,4.829c-0.411,3.205-1.038,6.378-1.773,9.523c-1.486,6.288-3.395,12.475-5.648,18.532
											c-2.252,6.058-4.826,12.002-7.823,17.74c-1.503,2.866-3.12,5.676-4.9,8.388c-1.79,2.703-3.73,5.326-5.991,7.684
											c-2.263,2.323-4.822,4.536-8.006,5.656c-0.784,0.295-1.62,0.453-2.457,0.564l-0.635,0.034
											c-0.116,0.004-0.189,0.014-0.34,0.013l-0.302-0.016l-1.208-0.063c-0.807-0.064-1.65-0.211-2.461-0.346
											c-0.794-0.2-1.61-0.334-2.386-0.589c-3.145-0.913-6.134-2.239-9.016-3.733c-2.882-1.5-5.658-3.182-8.365-4.962
											c-5.414-3.563-10.533-7.539-15.482-11.7c-4.945-4.171-9.732-8.511-14.327-13.078l-0.286-0.284l0.239-0.328l11.017-15.102
											l0.246-0.337l0.351,0.221l37.359,23.513l-0.394,0.127l13.651-32.539L548.07,222.7l-0.119,0.297l-0.275-0.17
											l-37.545-23.216l0.597-0.116l-10.973,15.134l-0.047-0.612c4.572,4.518,9.368,8.84,14.3,12.975
											c4.948,4.117,10.032,8.081,15.387,11.636c2.678,1.774,5.424,3.447,8.262,4.935c2.838,1.482,5.774,2.792,8.827,3.688
											c0.757,0.252,1.54,0.381,2.308,0.578c0.778,0.129,1.529,0.269,2.327,0.336l1.208,0.066l0.302,0.017l0.264-0.013
											l0.573-0.028c0.759-0.101,1.521-0.238,2.25-0.511c2.953-1.021,5.454-3.141,7.665-5.405c2.212-2.3,4.139-4.876,5.938-7.53
											c1.785-2.668,3.415-5.442,4.934-8.277c3.029-5.676,5.648-11.576,7.945-17.593c2.28-6.024,4.309-12.153,5.884-18.404
											c0.782-3.126,1.458-6.281,1.919-9.471c0.227-1.595,0.397-3.2,0.453-4.81C590.506,174.599,590.473,172.971,590.081,171.401
											z"/>
									</g>
								</g>
							</g>
							<g>
								<g>
									
										<rect x="459.514" y="181.366" transform="matrix(0.9664 -0.2569 0.2569 0.9664 -39.7379 131.4085)" style="fill:#10458F;" width="47.073" height="72.843"/>
									
										<rect x="463.139" y="179.871" transform="matrix(0.9664 -0.2569 0.2569 0.9664 -31.1747 127.5984)" style="fill:#FFFFFF;" width="19.23" height="6.479"/>
								</g>
								<path style="fill:#FFBDBA;" d="M454.017,217.443c0,0-0.344-3.436,1.031-5.154c1.374-1.718,17.523-9.964,5.154,0.687
									c0,0,18.898-6.185,0.687,3.78c0,0,18.211-5.154,1.031,3.092c0,0,17.18-3.436-2.062,4.123l1.718,4.467
									C461.576,228.438,457.453,230.156,454.017,217.443z"/>
							</g>
						</g>
					</g>
					<g>
						<g>
							<g>
								<path style="fill:#FFBDBA;" d="M537.774,92.379c0,0-18.52-14.193-26.282,19.986c-6.456,28.43,2.196,53.541,27.754,42.493
									c17.603-7.609,22.837-44.304,15.464-52.895C547.336,93.372,537.774,92.379,537.774,92.379z"/>
							</g>
							<g>
								<path style="fill:#081A47;" d="M560.893,126.106c-1.859,3.097-3.692,5.701-5.054,7.519
									C558.164,132.452,560.357,129.952,560.893,126.106z"/>
								<path style="fill:#081A47;" d="M554.869,134.042l-0.165,0.318c0.582-3.914,0.991-8.346,1.202-13.349
									c1.174-0.411,5.104-1.441,5.114,3.238c0.001,0.652-0.045,1.269-0.127,1.858c3.885-6.474,7.859-15.089,7.763-23.153
									c-0.158-13.164-9.174-14.004-12.635-13.84c-2.919-8.016-12.539-13.611-26.903-8.564
									c-14.565,5.117-17.416-9.195-17.397-9.226c-14.234,22.405,1.971,25.67,1.971,25.67l-7.243-1.157
									c6.628,6.725,13.008,9.789,18.678,10.815c-3.628,0.423-6.289,0.519-6.289,0.519c9.919,4.808,21.718,3.466,29.499-0.585
									c-0.89,3.636-1.067,8.11,2.332,10.461c-0.772,9.84-3.163,30.528-9.689,31.771c-5.535,1.054,2.636-9.225-4.481-12.125
									c-6.257-2.549-22.167-3.292-21.614,5.272c0.527,8.171-5.468-0.371-5.205-8.015c0,0-6.393,23.567,10.74,27.257
									c12.4,2.671,29.086,5.86,34.139-25.916c0.348-0.439,0.782-1,1.28-1.665C555.517,133.788,555.193,133.93,554.869,134.042z"/>
								<path style="fill:#061533;" d="M568.656,102.953c-0.158-13.164-9.174-14.004-12.635-13.84
									c-0.816-2.242-2.158-4.293-3.979-5.977c0.297,4.413-0.207,8.839-1.203,12.277c-1.217,4.203-3.475,8.938-6.562,12.896
									c1.438-0.498,2.806-1.071,4.06-1.724c-0.89,3.636-1.067,8.11,2.332,10.461c-0.772,9.84-3.163,30.528-9.689,31.771
									c-1.735,0.331-2.123-0.453-2.058-1.774c-4.2,6.857-11.936,11.359-20.836,10.609c-2.263-0.191-4.293-0.797-6.101-1.717
									c1.732,2.455,4.396,4.401,8.434,5.27c12.4,2.671,29.086,5.86,34.139-25.916c0.348-0.439,0.782-1,1.28-1.665
									c-0.322,0.163-0.647,0.305-0.97,0.417l-0.165,0.318c0.582-3.914,0.991-8.346,1.202-13.349
									c1.174-0.411,5.104-1.441,5.114,3.238c0.001,0.652-0.045,1.269-0.127,1.858
									C564.778,119.633,568.753,111.017,568.656,102.953z"/>
							</g>
						</g>
						<g>
							<g>
								<g>
									<path style="fill:#081A47;" d="M531.505,112.35c0,0,0.986,0.43,2.466,1.074c0.707,0.293,1.492,0.649,2.32,0.918
										c0.408,0.162,0.83,0.257,1.245,0.381c0.206,0.083,0.419,0.074,0.624,0.127c0.206,0.028,0.414,0.116,0.617,0.102
										c0.405,0.026,0.812,0.09,1.2,0.036c0.194-0.024,0.399,0.009,0.589-0.033c0.19-0.044,0.379-0.089,0.574-0.116
										c0.4-0.023,0.746-0.233,1.123-0.329c0.388-0.083,0.706-0.306,1.043-0.452c0.325-0.164,0.678-0.27,0.93-0.455
										c0.26-0.171,0.517-0.303,0.726-0.42c0.422-0.231,0.701-0.354,0.701-0.354s-0.058,0.277-0.229,0.744
										c-0.087,0.232-0.19,0.524-0.341,0.84c-0.124,0.338-0.368,0.648-0.629,1.005c-0.276,0.342-0.543,0.759-0.977,1.063
										c-0.422,0.308-0.832,0.719-1.4,0.922c-0.542,0.253-1.124,0.493-1.763,0.554c-0.632,0.151-1.271,0.09-1.911,0.054
										c-0.623-0.089-1.24-0.235-1.799-0.449c-0.555-0.224-1.089-0.468-1.542-0.783c-0.48-0.28-0.874-0.63-1.249-0.951
										c-0.363-0.334-0.675-0.679-0.947-1.004c-0.526-0.673-0.886-1.279-1.089-1.738
										C531.573,112.634,531.505,112.35,531.505,112.35z"/>
								</g>
								<g>
									<path style="fill:#081A47;" d="M525.916,115.546c0,0-0.911-0.572-2.278-1.43c-0.655-0.396-1.379-0.864-2.156-1.255
										c-0.379-0.222-0.783-0.378-1.174-0.563c-0.191-0.113-0.403-0.135-0.598-0.219c-0.199-0.058-0.392-0.176-0.594-0.193
										c-0.396-0.086-0.789-0.21-1.181-0.215c-0.195-0.005-0.393-0.068-0.588-0.055c-0.195,0.015-0.388,0.031-0.585,0.029
										c-0.399-0.037-0.772,0.119-1.16,0.158c-0.397,0.024-0.744,0.197-1.098,0.291c-0.346,0.114-0.711,0.166-0.988,0.311
										c-0.283,0.13-0.556,0.223-0.781,0.307c-0.451,0.166-0.746,0.245-0.746,0.245s0.099-0.265,0.337-0.701
										c0.121-0.217,0.266-0.49,0.463-0.779c0.173-0.316,0.461-0.586,0.772-0.899c0.324-0.297,0.65-0.67,1.125-0.905
										c0.463-0.241,0.93-0.587,1.522-0.702c0.574-0.169,1.185-0.32,1.826-0.285c0.647-0.055,1.27,0.101,1.897,0.232
										c0.602,0.181,1.191,0.418,1.712,0.713c0.516,0.305,1.007,0.626,1.408,1.005c0.433,0.348,0.77,0.754,1.093,1.127
										c0.309,0.385,0.566,0.772,0.786,1.134c0.419,0.744,0.684,1.397,0.817,1.881
										C525.892,115.254,525.916,115.546,525.916,115.546z"/>
								</g>
								<g>
									<path style="fill:#081A47;" d="M540.349,124.303c0,0,0.028,0.249,0.013,0.687c-0.027,0.435-0.053,1.069-0.253,1.81
										c-0.099,0.371-0.234,0.769-0.429,1.177c-0.208,0.401-0.461,0.827-0.842,1.189c-0.197,0.174-0.387,0.366-0.64,0.492
										c-0.121,0.068-0.239,0.146-0.367,0.204l-0.408,0.125c-0.551,0.156-1.133,0.135-1.672,0.038l-0.205-0.034l-0.213-0.07
										l-0.349-0.118c-0.221-0.055-0.495-0.218-0.741-0.343c-0.497-0.267-0.874-0.646-1.209-1.04
										c-0.312-0.411-0.537-0.852-0.681-1.286c-0.148-0.432-0.228-0.852-0.258-1.238c-0.076-0.772,0.03-1.404,0.099-1.834
										c0.082-0.432,0.174-0.666,0.174-0.666s-0.001,0.251,0.026,0.679c0.019,0.427,0.105,1.035,0.282,1.719
										c0.088,0.342,0.223,0.697,0.387,1.051c0.167,0.354,0.403,0.683,0.665,0.995c0.28,0.292,0.623,0.556,0.982,0.745
										c0.19,0.084,0.329,0.195,0.588,0.258l0.352,0.109l0.138,0.044l0.16,0.021c0.423,0.086,0.848,0.111,1.232,0.01
										c0.195-0.043,0.383-0.098,0.554-0.201c0.187-0.068,0.336-0.207,0.496-0.324c0.305-0.257,0.563-0.574,0.786-0.899
										c0.206-0.337,0.391-0.672,0.541-0.997c0.292-0.652,0.498-1.233,0.61-1.646
										C540.286,124.546,540.349,124.303,540.349,124.303z"/>
								</g>
								<g>
									<path style="fill:#081A47;" d="M522.532,122.183c0,0,0.028,0.249,0.013,0.687c-0.027,0.434-0.054,1.069-0.253,1.81
										c-0.099,0.371-0.234,0.769-0.429,1.177c-0.208,0.401-0.461,0.827-0.842,1.189c-0.197,0.174-0.387,0.366-0.64,0.492
										c-0.121,0.068-0.239,0.146-0.367,0.204l-0.408,0.125c-0.551,0.156-1.134,0.135-1.673,0.038l-0.205-0.034l-0.213-0.069
										l-0.349-0.118c-0.221-0.055-0.495-0.218-0.741-0.343c-0.497-0.267-0.874-0.646-1.209-1.04
										c-0.312-0.41-0.537-0.852-0.681-1.286c-0.148-0.432-0.228-0.852-0.258-1.238c-0.075-0.772,0.03-1.404,0.099-1.834
										c0.082-0.432,0.174-0.666,0.174-0.666s-0.002,0.251,0.026,0.678c0.019,0.427,0.105,1.035,0.282,1.719
										c0.088,0.342,0.223,0.697,0.387,1.051c0.167,0.354,0.402,0.683,0.665,0.995c0.28,0.292,0.623,0.556,0.982,0.746
										c0.19,0.084,0.329,0.195,0.588,0.258l0.352,0.109l0.138,0.044l0.16,0.021c0.423,0.086,0.848,0.111,1.232,0.01
										c0.195-0.044,0.383-0.098,0.554-0.201c0.187-0.068,0.336-0.207,0.496-0.324c0.305-0.257,0.563-0.574,0.786-0.899
										c0.206-0.337,0.39-0.672,0.541-0.997c0.292-0.652,0.498-1.233,0.61-1.646C522.469,122.426,522.532,122.183,522.532,122.183
										z"/>
								</g>
								<g>
									<path style="fill:#E26969;" d="M525.955,134.584c-0.528,0.046-1.034,0.025-1.528-0.03
										c-0.495-0.051-0.983-0.127-1.457-0.242c-0.48-0.096-0.943-0.246-1.41-0.384c-0.232-0.072-0.457-0.165-0.687-0.247
										c-0.229-0.081-0.456-0.169-0.677-0.274l-0.685-0.324l0.255-0.609c0.531-1.269,1.045-2.545,1.596-3.807l1.61-3.806
										l1.628-3.804c0.542-1.269,1.106-2.53,1.672-3.792c-0.72,2.671-1.529,5.314-2.41,7.932c-0.85,2.629-1.827,5.216-2.791,7.807
										l-0.43-0.933c0.24,0.049,0.474,0.115,0.706,0.187c0.232,0.072,0.468,0.133,0.697,0.214c0.456,0.17,0.916,0.327,1.358,0.539
										c0.448,0.192,0.884,0.424,1.311,0.68C525.143,133.944,525.56,134.23,525.955,134.584z"/>
								</g>
								<path style="fill:#FFFFFF;" d="M517.784,140.119l18.188-1.054C535.971,139.065,525.428,147.5,517.784,140.119z"/>
							</g>
							<g>
								<g>
									<path style="fill:#FFBDBA;" d="M555.878,119.851l-1.428,17.712c4.796-1.216,9.021-5.622,9.319-12.323
										C564.117,117.405,555.878,119.851,555.878,119.851z"/>
								</g>
								<g>
									<path style="fill:#E26969;" d="M557.849,134.32c0.271-0.336,0.486-0.712,0.62-1.084c0.064-0.188,0.097-0.375,0.102-0.549
										c0-0.176-0.048-0.331-0.116-0.469c-0.091-0.132-0.176-0.258-0.316-0.362c-0.111-0.116-0.299-0.191-0.441-0.286
										c-0.181-0.069-0.346-0.147-0.527-0.213l-0.561-0.173l-0.374-0.115l-0.026-0.44c-0.082-1.382-0.064-2.747,0.067-4.127
										c0.072-0.688,0.14-1.382,0.296-2.073c0.149-0.692,0.33-1.388,0.661-2.097c0.187-0.349,0.398-0.718,0.805-1.048
										c0.193-0.164,0.481-0.301,0.785-0.344c0.31-0.042,0.596,0.024,0.838,0.12l0.072,0.032l0.014,0.008l0.027,0.016l0.055,0.033
										l0.109,0.065l0.218,0.13c0.174,0.129,0.354,0.279,0.517,0.424c0.275,0.301,0.511,0.623,0.672,0.974
										c0.319,0.701,0.447,1.427,0.457,2.134c0.02,0.706-0.075,1.402-0.263,2.063c-0.054-0.683-0.172-1.348-0.335-1.981
										c-0.175-0.628-0.4-1.232-0.745-1.712c-0.172-0.239-0.363-0.443-0.571-0.617c-0.105-0.06-0.192-0.119-0.292-0.186
										l-0.41-0.173c-0.174-0.035-0.15-0.01-0.27,0.084c-0.111,0.107-0.247,0.339-0.352,0.595
										c-0.22,0.527-0.381,1.147-0.495,1.779c-0.108,0.635-0.227,1.28-0.302,1.935c-0.156,1.308-0.28,2.645-0.388,3.965
										l-0.4-0.555l0.632,0.292c0.21,0.105,0.41,0.252,0.608,0.378c0.188,0.172,0.389,0.305,0.545,0.525
										c0.169,0.195,0.299,0.442,0.376,0.703c0.062,0.272,0.062,0.544,0,0.794c-0.065,0.247-0.17,0.469-0.308,0.657
										C558.564,133.806,558.222,134.097,557.849,134.32z"/>
								</g>
							</g>
						</g>
					</g>
				</g>
			</g>
			<g>
				<g>
					
						<ellipse transform="matrix(0.154 -0.9881 0.9881 0.154 277.4267 537.3104)" style="fill:#FFFFFF;" cx="452.48" cy="106.65" rx="39.466" ry="39.466"/>
					<polygon style="fill:#FFFFFF;" points="481.007,123.446 493.038,142.282 469.995,132.671 					"/>
				</g>
				<g>
					<rect x="444.453" y="86.055" style="fill:#D66C68;" width="14.814" height="38"/>
					<rect x="432.86" y="97.648" style="fill:#D66C68;" width="38" height="14.814"/>
				</g>
			</g>
		</g>
		<g>
			<ellipse style="opacity:0.5;fill:#AAC3FF;" cx="385.246" cy="468.247" rx="59.131" ry="12.808"/>
			<g>
				<g>
					<g>
						<g>
							<path style="fill:#081A47;" d="M385.783,418.104l1.546,43.809c0,0-45.87,19.585-9.277-3.092c0,0-8.246-25.254-9.277-34.016
								C367.744,416.043,385.783,418.104,385.783,418.104z"/>
							<path style="fill:#051128;" d="M375.964,452.23c3.404-1.459,7.128-2.283,10.923-2.843l-1.104-31.283
								c0,0-18.039-2.061-17.008,6.7C369.471,430.718,373.448,444.126,375.964,452.23z"/>
						</g>
						<g>
							<path style="fill:#081A47;" d="M383.867,418.007l4.491,43.605c0,0,48.127,13.094,8.764-4.338c0,0,4.697-26.148,4.513-34.969
								C401.451,413.486,383.867,418.007,383.867,418.007z"/>
							<path style="fill:#051128;" d="M398.284,450.46c-3.573-0.978-7.374-1.282-11.21-1.315l-3.207-31.138
								c0,0,17.584-4.522,17.768,4.299C401.758,428.259,399.662,442.087,398.284,450.46z"/>
						</g>
					</g>
					<g>
						<path style="fill:#0D386B;" d="M421.358,284.591c-0.086-21.387-13.226-38.782-19.881-46.227
							c-8.492,11.896-19.165,22.503-28.095,33.863c-4.848,6.167-9.635,12.403-14.24,18.764l10.301,1.887l17.266,153.756
							l14.654,0.414c0,0,4.596-21.533,7.816-41.817c3.219-20.285-9.868-48.552-9.868-48.552S421.474,313.235,421.358,284.591z"/>
						<path style="fill:#10458F;" d="M345.067,237.716c0,0-20.1,24.739-15.977,53.086c4.123,28.347,32.47,68.032,32.47,68.032
							s-8.762,29.893-2.577,49.478c6.185,19.585,13.916,40.201,13.916,40.201l14.431-2.577l-6.7-146.888l40.201-21.131
							c0,0-2.061-32.985-22.162-43.809C378.568,223.285,345.067,237.716,345.067,237.716z"/>
						<path style="fill:#0D386B;" d="M408.914,243.132c-2.748-3.624-6.11-6.797-10.246-9.024
							c-20.1-10.823-53.601,3.608-53.601,3.608s-5.857,7.219-10.599,18.316C360.285,256.605,386.295,255.158,408.914,243.132z"/>
					</g>
				</g>
				<g>
					<g>
						<g>
							<path style="fill:#10458F;" d="M377.944,110.163c0,0-11.828,61.552,5.069,65.655c16.897,4.104,18.103-16.414,18.103-16.414
								l-14-47.793L377.944,110.163z"/>
							<path style="fill:#10458F;" d="M365.875,100.507c0,0-13.517-8.207-20.517,6.517c-7,14.724,1.69,33.069-10.138,52.379
								c-13.095,21.38,16.655,28,32.345,20.035C383.254,171.473,365.875,100.507,365.875,100.507z"/>
						</g>
						<g>
							<path style="fill:#0D386B;" d="M377.944,110.163c0,0-11.828,61.552,5.069,65.655c16.897,4.104,18.103-16.414,18.103-16.414
								l-14-47.793L377.944,110.163z"/>
							<path style="fill:#0D386B;" d="M359.047,123.179c-3.959-4.44-6.931-9.492-8.905-15.1c-0.698-1.983-1.144-4.005-1.43-6.049
								c-1.211,1.26-2.351,2.885-3.353,4.995c-7,14.724,1.69,33.069-10.138,52.379c-13.095,21.38,16.655,28,32.345,20.034
								c8.389-4.259,7.323-26.53,4.515-46.334C367.221,130.516,362.733,127.313,359.047,123.179z"/>
						</g>
					</g>
					<g>
						<g>
							<path style="fill:#FF8B67;" d="M363.363,141.079c0,0,5.412,24.481-0.515,28.605c-5.927,4.123-30.151-6.958-27.831,15.462
								c2.106,20.354,46.901,18.039,55.921,14.946c9.019-3.092,25.129-10.342,24.224-22.42
								c-1.546-20.616-31.181,1.288-31.439-13.916c-0.254-15,6.442-28.604,6.442-28.604L363.363,141.079z"/>
							<path style="fill:#D8604C;" d="M364.977,165.975c6.394-1.137,12.973-2.58,18.781-5.141
								c0.558-13.799,6.405-25.682,6.405-25.682l-26.801,5.927C363.363,141.079,367.069,157.863,364.977,165.975z"/>
						</g>
						<path style="fill:#FF8B67;" d="M369.114,105.333c0,0-20.096-0.418-17.519,28.787c2.081,23.583,24.567,33.673,34.188,13.916
							C396.531,125.964,382.775,101.729,369.114,105.333z"/>
					</g>
				</g>
				<g>
					<g>
						<path style="fill:#FFFFFF;" d="M348.932,169.683c0,0,5.92,18.699,22.677,17.781c18.812-1.031,22.162-19.327,22.162-19.327
							s14.431-6.185,19.07,4.639c4.639,10.823-16.235,63.909-16.235,63.909s-27.574,7.989-50.509-1.288
							c0,0-20.346-44.855-15.462-56.178C336.305,166.076,348.932,169.683,348.932,169.683z"/>
						<path style="opacity:0.5;fill:#CEE2F9;" d="M365.686,207.695c-13.187-1.706-24.305-7.825-34.762-15.252
							c3.585,17.401,15.174,42.953,15.174,42.953c22.935,9.277,50.509,1.288,50.509,1.288s12.47-31.716,15.99-51.117
							C402.943,200.673,383.372,209.983,365.686,207.695z"/>
					</g>
					<g>
						<g>
							<g>
								<path style="fill:#FF8B67;" d="M330.578,207.871l21.542-5.055c0,0,43.725,138.661,27.005,101.316
									c0,0,7.83,23.684-3.135,1.457c0,0,7.616,22.131-3.106,0.427c0,0,7.72,18.525-3.842-0.883
									C357.481,285.724,332.262,221.067,330.578,207.871z"/>
								<path style="fill:#D8604C;" d="M354.815,211.419c-1.672-5.357-2.695-8.602-2.695-8.602l-21.542,5.055
									c0.265,2.08,1.116,5.439,2.405,9.695C340.314,215.707,347.607,213.715,354.815,211.419z"/>
							</g>
							<path style="fill:#FFFFFF;" d="M355.564,208.586l-25.679,5.452c0,0-12.744-50.121,19.057-44.312L355.564,208.586z"/>
						</g>
						<g>
							<g>
								<path style="fill:#FF8B67;" d="M416.803,204.134l-21.805-3.763c0,0-35.389,141.019-20.923,102.745
									c0,0-6.405,24.108,3.216,1.268c0,0-6.285,22.546,3.126,0.241c0,0-6.602,18.952,3.782-1.111
									C394.584,283.452,415.907,217.407,416.803,204.134z"/>
								<path style="fill:#D8604C;" d="M392.82,209.119c1.35-5.448,2.178-8.748,2.178-8.748l21.805,3.763
									c-0.141,2.092-0.79,5.495-1.823,9.821C407.551,212.535,400.152,210.982,392.82,209.119z"/>
							</g>
							<path style="fill:#FFFFFF;" d="M391.903,206.336l25.958,3.913c0,0,9.737-50.791-21.662-43.099L391.903,206.336z"/>
						</g>
					</g>
				</g>
				<g>
					<g>
						<path style="fill:#10458F;" d="M359.116,105.576c0,0,3.8,17.138,27.035,19.31l-1.601-4.104c0,0,7.933,6.122,2.006,23.646
							c-6.149,18.179-5.927,24.739,4.267,25.837c5.727,0.617,2.175-9.86,9.906-7.283c0,0-0.612-10.096,1.014-34.717
							s-10.223-32.103-20.679-35.724C370.609,88.921,355.495,92.542,359.116,105.576z"/>
						<path style="fill:#0D386B;" d="M401.743,128.266c1.068-16.168-3.675-24.945-10.019-30.092
							c-0.486,3.336-1.521,6.457-2.999,8.87c-3.535,5.773-8.725,11.536-15.532,13.317c-0.507,0.133-1.015,0.229-1.523,0.337
							c3.693,2.033,8.421,3.622,14.48,4.188l-1.601-4.103c0,0,7.933,6.122,2.006,23.646c-6.149,18.179-5.927,24.739,4.267,25.837
							c5.727,0.617,9.906-5.479,17.637-2.902C408.46,167.364,400.117,152.887,401.743,128.266z"/>
					</g>
					<g>
						<g>
							<path style="fill:#081A47;" d="M353.54,127.538c0,0,0.054-0.229,0.231-0.598c0.085-0.187,0.205-0.403,0.359-0.644
								c0.163-0.231,0.339-0.511,0.587-0.763c0.234-0.269,0.51-0.546,0.844-0.797c0.32-0.267,0.714-0.488,1.125-0.704
								c0.43-0.184,0.883-0.38,1.384-0.455c0.489-0.137,1.007-0.109,1.52-0.119c0.504,0.052,1.015,0.14,1.485,0.282
								c0.452,0.185,0.921,0.338,1.303,0.584c0.381,0.249,0.747,0.491,1.066,0.743c0.295,0.281,0.559,0.56,0.796,0.816
								c0.252,0.24,0.431,0.507,0.581,0.749c0.158,0.233,0.279,0.449,0.381,0.622c0.198,0.351,0.293,0.56,0.293,0.56
								s-0.222-0.094-0.577-0.272c-0.366-0.161-0.811-0.484-1.399-0.743c-0.29-0.136-0.597-0.281-0.905-0.449
								c-0.325-0.132-0.669-0.25-1.005-0.398c-0.339-0.145-0.709-0.187-1.058-0.314c-0.36-0.064-0.722-0.122-1.083-0.155
								c-0.361,0.008-0.725-0.035-1.08,0.033c-0.361,0.018-0.707,0.118-1.056,0.189c-0.337,0.11-0.683,0.197-0.994,0.338
								c-0.319,0.126-0.625,0.256-0.903,0.4c-0.555,0.283-1.032,0.555-1.363,0.761C353.734,127.406,353.54,127.538,353.54,127.538z"
								/>
						</g>
						<g>
							<path style="fill:#081A47;" d="M371.222,127.936c0,0,0.104-0.269,0.366-0.698c0.256-0.432,0.676-1.018,1.281-1.641
								c0.31-0.302,0.642-0.645,1.055-0.933c0.39-0.32,0.845-0.606,1.334-0.874c0.498-0.245,1.025-0.51,1.597-0.678
								c0.576-0.165,1.167-0.318,1.785-0.349c0.611-0.085,1.227-0.026,1.828,0.039c0.304,0.01,0.592,0.088,0.874,0.178
								c0.281,0.083,0.559,0.165,0.832,0.245c0.538,0.171,1.001,0.476,1.454,0.702c0.462,0.216,0.8,0.575,1.147,0.835
								c0.341,0.271,0.646,0.522,0.86,0.808c0.232,0.263,0.418,0.507,0.572,0.703c0.304,0.396,0.458,0.631,0.458,0.631
								s-0.273-0.111-0.717-0.32c-0.22-0.107-0.488-0.231-0.776-0.389c-0.281-0.171-0.643-0.284-1.008-0.439
								c-0.183-0.074-0.373-0.151-0.57-0.231c-0.193-0.085-0.387-0.179-0.606-0.223c-0.43-0.103-0.862-0.265-1.317-0.36
								c-0.464-0.05-0.927-0.184-1.408-0.18c-0.479-0.007-0.961-0.061-1.445,0.024c-0.487,0.007-0.962,0.132-1.439,0.222
								c-0.47,0.114-0.94,0.247-1.385,0.406c-0.435,0.189-0.883,0.328-1.279,0.535c-0.408,0.183-0.783,0.388-1.142,0.569
								c-0.695,0.39-1.292,0.736-1.699,1C371.46,127.773,371.222,127.936,371.222,127.936z"/>
						</g>
						<g>
							<path style="fill:#BA5143;" d="M366.198,129.826c0.098,0.49,0.142,0.986,0.18,1.483c0.045,0.498,0.057,0.997,0.049,1.496
								c-0.015,0.999-0.099,2.001-0.281,2.993c-0.187,0.99-0.449,1.975-0.84,2.921c-0.219,0.464-0.41,0.941-0.695,1.376
								c-0.143,0.217-0.258,0.447-0.429,0.646l-0.48,0.614l-0.267-0.709c0.78,0.171,1.561,0.343,2.337,0.542
								c0.389,0.092,0.774,0.212,1.161,0.317c0.387,0.105,0.773,0.216,1.156,0.346c-0.404,0-0.806-0.018-1.206-0.041
								c-0.4-0.024-0.803-0.032-1.201-0.07c-0.799-0.059-1.593-0.144-2.388-0.231l-0.693-0.076l0.426-0.634l0.39-0.581
								c0.14-0.185,0.231-0.407,0.345-0.61c0.24-0.4,0.412-0.845,0.602-1.275c0.157-0.448,0.338-0.886,0.469-1.347
								c0.155-0.452,0.251-0.924,0.383-1.386c0.229-0.936,0.406-1.889,0.567-2.852l0.227-1.453L366.198,129.826z"/>
						</g>
						<g>
							<path style="fill:#BA5143;" d="M361.903,146.49c0,0,0.24,0.056,0.661,0.154c0.415,0.106,1.02,0.209,1.736,0.333
								c0.358,0.063,0.747,0.118,1.157,0.173c0.408,0.069,0.846,0.085,1.29,0.146c0.896,0.061,1.849,0.13,2.799,0.082
								c0.476-0.002,0.951-0.022,1.415-0.081c0.467-0.036,0.923-0.092,1.362-0.171c0.444-0.058,0.864-0.152,1.264-0.247
								c0.403-0.084,0.783-0.174,1.124-0.291c0.349-0.103,0.668-0.197,0.952-0.281c0.277-0.107,0.518-0.2,0.717-0.277
								c0.402-0.151,0.643-0.227,0.643-0.227s-0.192,0.153-0.548,0.404c-0.18,0.124-0.398,0.274-0.649,0.447
								c-0.258,0.162-0.564,0.316-0.901,0.485c-0.331,0.183-0.707,0.344-1.118,0.477c-0.406,0.15-0.837,0.311-1.302,0.399
								c-0.46,0.11-0.937,0.231-1.433,0.271c-0.493,0.073-0.996,0.109-1.5,0.122c-0.505,0.026-1.007-0.019-1.502-0.037
								c-0.494-0.027-0.975-0.114-1.44-0.177c-0.925-0.171-1.775-0.384-2.478-0.646C362.737,147.047,361.903,146.49,361.903,146.49z
								"/>
						</g>
						<g>
							<path style="fill:#081A47;" d="M381.377,136.072c0,0-0.066-0.192-0.18-0.527c-0.115-0.332-0.292-0.8-0.532-1.332
								c-0.246-0.526-0.563-1.127-1.009-1.612c-0.217-0.25-0.487-0.424-0.758-0.563c-0.284-0.106-0.584-0.181-0.909-0.128
								l-0.243,0.02c0.001-0.016-0.166,0.042-0.24,0.059c-0.2,0.051-0.389,0.107-0.502,0.179c-0.268,0.108-0.556,0.315-0.774,0.533
								c-0.22,0.228-0.405,0.489-0.549,0.766c-0.134,0.28-0.251,0.562-0.33,0.836c-0.16,0.549-0.235,1.041-0.278,1.388
								c-0.042,0.348-0.052,0.553-0.052,0.553s-0.077-0.19-0.153-0.543c-0.073-0.352-0.152-0.868-0.1-1.504
								c0.021-0.318,0.083-0.665,0.202-1.025c0.122-0.358,0.298-0.736,0.578-1.07c0.145-0.161,0.283-0.338,0.469-0.469
								c0.167-0.149,0.361-0.28,0.591-0.379c0.232-0.126,0.423-0.183,0.609-0.237c0.119-0.031,0.139-0.056,0.338-0.092l0.354-0.043
								c0.472-0.056,0.979,0.06,1.417,0.257c0.43,0.22,0.772,0.544,1.025,0.88c0.261,0.335,0.439,0.693,0.574,1.033
								c0.146,0.338,0.231,0.67,0.3,0.974C381.492,135.25,381.377,136.072,381.377,136.072z"/>
						</g>
						<g>
							<path style="fill:#081A47;" d="M363.853,136.587c0,0-0.065-0.192-0.18-0.527c-0.115-0.332-0.292-0.8-0.532-1.332
								c-0.246-0.526-0.563-1.127-1.009-1.612c-0.217-0.25-0.487-0.424-0.758-0.563c-0.284-0.106-0.584-0.182-0.909-0.128
								l-0.243,0.02c0.001-0.016-0.166,0.042-0.24,0.059c-0.2,0.05-0.389,0.107-0.502,0.179c-0.268,0.108-0.556,0.315-0.774,0.533
								c-0.22,0.228-0.405,0.489-0.549,0.765c-0.134,0.28-0.251,0.562-0.331,0.836c-0.16,0.549-0.236,1.041-0.278,1.388
								c-0.042,0.348-0.052,0.553-0.052,0.553s-0.077-0.19-0.153-0.543c-0.073-0.352-0.152-0.868-0.1-1.504
								c0.021-0.318,0.083-0.665,0.202-1.025c0.122-0.358,0.298-0.736,0.577-1.07c0.145-0.161,0.283-0.338,0.469-0.469
								c0.167-0.149,0.361-0.28,0.591-0.379c0.232-0.126,0.423-0.183,0.609-0.237c0.118-0.031,0.139-0.057,0.338-0.092l0.354-0.043
								c0.472-0.056,0.979,0.06,1.417,0.257c0.43,0.22,0.772,0.544,1.025,0.88c0.261,0.335,0.439,0.693,0.574,1.033
								c0.146,0.338,0.232,0.67,0.3,0.974C363.969,135.765,363.853,136.587,363.853,136.587z"/>
						</g>
					</g>
				</g>
			</g>
		</g>
		<g>
			<g>
				<path style="opacity:0.5;fill:#AAC3FF;" d="M253.842,468.794c0,6.496-24.957,11.762-55.742,11.762
					c-30.786,0-55.742-5.266-55.742-11.762c0-6.496,24.957-11.762,55.742-11.762C228.885,457.032,253.842,462.298,253.842,468.794z"
					/>
				<g>
					<g>
						<g>
							<g>
								<path style="fill:#B25757;" d="M192.449,153.561c0,0-3.619,10.898,0.157,12.455c3.777,1.557,12.747,1.903,13.691,3.633
									c0.944,1.73-20.773,10.033-42.174,0.865c0,0,10.858-0.692,9.599-22.661C172.463,125.883,192.449,153.561,192.449,153.561z"
									/>
								<g>
									<path style="fill:#92DFDC;" d="M168.117,167.899c0,0,13.709,11.159,34.114,0.638l3.188,49.736l-6.695,2.55L168.117,167.899
										z"/>
									<path style="fill:#71C6C6;" d="M187.245,200.974l12.728,25.541l6.695-2.551l-3.245-36.821
										C198.063,191.792,192.666,196.397,187.245,200.974z"/>
								</g>
							</g>
							<g>
								<g>
									<path style="fill:#061533;" d="M185.21,96.476c0,0,7.868-3.46,19.514,1.384c12.942,5.383,22.661,25.429,10.701,58.123
										c0,0-5.036-1.903-14.478-3.114C191.505,151.658,185.21,96.476,185.21,96.476z"/>
									<path style="fill:#D66C68;" d="M189.616,105.644c0,0,20.3-0.865,22.504,18.337c2.92,25.448-6.137,36.846-20.615,35.116
										c-14.478-1.73-20.772-15.569-20.143-31.311C171.991,112.045,175.768,107.893,189.616,105.644z"/>
								</g>
								<path style="fill:#081A47;" d="M199.845,103.222c-1.568-3.332-4.713-5.449-8.076-6.799c-1.227-0.689-2.641-1.29-4.193-1.776
									c-2.066-0.65-4.368-1.12-6.841-1.344c-0.639-0.037-1.199-0.138-1.97-0.065c-0.663,0.056-1.31,0.153-1.961,0.283
									c-0.658,0.104-1.295,0.307-1.951,0.472c-0.635,0.223-1.296,0.404-1.928,0.671c-2.551,1.01-5.044,2.455-7.234,4.345
									c-2.168,1.916-4.033,4.199-5.596,6.667c-0.371,0.627-0.688,1.284-1.033,1.924c-0.332,0.647-0.703,1.272-0.949,1.965
									c-0.518,1.355-1.171,2.711-1.497,4.043c-0.196,0.668-0.392,1.332-0.586,1.994l-0.142,0.497
									c-0.027,0.102-0.04,0.122-0.079,0.292l-0.049,0.256l-0.194,1.02c-0.258,1.356-0.513,2.695-0.764,4.012
									c-0.292,1.31-0.414,2.623-0.528,3.907c-0.122,1.282-0.242,2.536-0.359,3.757c-0.061,1.224-0.066,2.418-0.088,3.57
									c0.005,1.153-0.076,2.264,0.015,3.332c0.122,2.134,0.177,4.088,0.439,5.806c0.105,0.859,0.203,1.663,0.294,2.406
									c0.127,0.738,0.243,1.416,0.349,2.028c0.186,1.226,0.452,2.172,0.593,2.819c0.153,0.645,0.256,0.984,0.256,0.984
									s-0.251-1.398-0.469-3.856c-0.057-0.614-0.119-1.294-0.188-2.034c-0.032-0.743-0.067-1.546-0.104-2.404
									c-0.122-1.711-0.02-3.65-0.038-5.754c-0.031-1.053,0.113-2.147,0.171-3.279c0.088-1.131,0.125-2.303,0.238-3.5
									c0.164-1.193,0.332-2.418,0.503-3.67c0.172-1.251,0.305-2.534,0.629-3.808c0.276-1.28,0.557-2.582,0.842-3.9l0.213-0.991
									l0.053-0.248c-0.006,0.001,0.042-0.141,0.061-0.204l0.076-0.243c-0.082,0.337-0.17,0.663-0.247,1.01
									c-4.112,18.665,0,33.732,0,33.732c1.548,0.914,3.269,1.7,5.048,2.377c-0.335-2.127-0.65-5.078-0.484-8.086
									c0,0,0.312,4.487,1.575,8.486c2.115,0.744,4.278,1.339,6.303,1.812c-0.161-2.14-0.325-4.886-0.325-7.184
									c0,0,0.693,3.807,1.541,7.457c4.786,1.033,8.531,1.365,8.531,1.365s-5.036-6.574-5.036-15.396
									c0-8.822,2.203-13.839,12.117-16.261C196.698,123.288,204.566,113.255,199.845,103.222z"/>
							</g>
						</g>
						<g>
							<g>
								<path style="fill:#081A47;" d="M200.947,128.132c0,0,0.066-0.227,0.263-0.572c0.188-0.353,0.515-0.808,0.985-1.3
									c0.249-0.225,0.514-0.487,0.842-0.704c0.321-0.228,0.679-0.448,1.087-0.622c0.389-0.206,0.856-0.312,1.314-0.439
									c0.484-0.056,0.973-0.162,1.486-0.1l0.759,0.079c0.249,0.06,0.492,0.143,0.732,0.218c0.494,0.12,0.899,0.423,1.3,0.66
									c0.401,0.243,0.679,0.601,0.973,0.886c0.301,0.284,0.45,0.649,0.635,0.939c0.17,0.302,0.312,0.579,0.375,0.856
									c0.086,0.262,0.133,0.504,0.175,0.696c0.08,0.387,0.091,0.614,0.091,0.614s-0.223-0.105-0.551-0.3
									c-0.162-0.099-0.363-0.211-0.561-0.353c-0.194-0.151-0.459-0.26-0.709-0.399c-0.262-0.121-0.487-0.326-0.783-0.415
									c-0.287-0.098-0.543-0.275-0.838-0.345c-0.296-0.065-0.562-0.208-0.864-0.229c-0.147-0.026-0.293-0.048-0.436-0.09
									l-0.454-0.021c-0.296-0.067-0.619,0.019-0.931-0.012c-0.318,0.06-0.642,0.042-0.964,0.116
									c-0.324,0.043-0.645,0.103-0.958,0.17c-0.317,0.051-0.614,0.141-0.908,0.193c-0.603,0.141-1.105,0.259-1.457,0.342
									C201.165,128.084,200.947,128.132,200.947,128.132z"/>
							</g>
							<g>
								<path style="fill:#081A47;" d="M185.168,127.44c0,0,0.066-0.227,0.263-0.572c0.189-0.353,0.515-0.808,0.985-1.3
									c0.249-0.225,0.514-0.487,0.842-0.704c0.321-0.228,0.679-0.448,1.087-0.622c0.389-0.206,0.856-0.312,1.314-0.439
									c0.484-0.056,0.972-0.162,1.486-0.1l0.759,0.079c0.249,0.06,0.492,0.143,0.732,0.219c0.494,0.119,0.898,0.423,1.3,0.659
									c0.401,0.243,0.679,0.601,0.973,0.886c0.301,0.284,0.45,0.65,0.635,0.94c0.17,0.302,0.312,0.579,0.375,0.856
									c0.086,0.262,0.133,0.504,0.175,0.696c0.08,0.387,0.091,0.614,0.091,0.614s-0.223-0.105-0.551-0.3
									c-0.162-0.099-0.363-0.211-0.561-0.353c-0.193-0.151-0.459-0.26-0.709-0.399c-0.262-0.121-0.487-0.326-0.783-0.416
									c-0.287-0.098-0.543-0.274-0.838-0.345c-0.296-0.065-0.562-0.208-0.864-0.229c-0.146-0.026-0.293-0.048-0.436-0.09
									l-0.454-0.021c-0.296-0.067-0.619,0.019-0.931-0.012c-0.318,0.06-0.642,0.042-0.965,0.116
									c-0.324,0.043-0.645,0.103-0.958,0.17c-0.317,0.051-0.615,0.141-0.908,0.193c-0.603,0.141-1.105,0.259-1.457,0.342
									C185.387,127.392,185.168,127.44,185.168,127.44z"/>
							</g>
							<g>
								<path style="fill:#823636;" d="M198.83,131.678c0.344,0.776,0.631,1.568,0.943,2.353c0.294,0.79,0.575,1.585,0.845,2.382
									c0.537,1.596,1.039,3.202,1.502,4.819l0.093,0.324l-0.272,0.184c-0.711,0.482-1.432,0.949-2.18,1.378
									c-0.743,0.436-1.513,0.833-2.314,1.185c0.609-0.629,1.25-1.212,1.917-1.756c0.663-0.551,1.352-1.065,2.052-1.563
									l-0.179,0.508c-0.486-1.611-0.934-3.233-1.346-4.865c-0.204-0.817-0.398-1.637-0.579-2.46
									C199.149,133.337,198.961,132.516,198.83,131.678z"/>
							</g>
							<path style="fill:#FFFFFF;" d="M188.107,146.897c0,0,3.978,6.918,11.76,2.075"/>
							<g>
								<ellipse style="fill:#081A47;" cx="206.643" cy="134.625" rx="0.948" ry="2.74"/>
								<ellipse style="fill:#081A47;" cx="190.413" cy="134.625" rx="0.948" ry="2.74"/>
							</g>
						</g>
					</g>
					<g>
						<g>
							<g>
								<g>
									<path style="fill:#D66C68;" d="M204.939,426.535c0,0,2.408,36.082,5.4,36.789c10.25,2.42,45.525,5.008,11.762-3.459
										c0,0,4.54-24.269,7.579-56.227C232.718,371.68,204.939,426.535,204.939,426.535z"/>
									<path style="fill:#B25757;" d="M223.965,448.824c1.598-10.093,3.919-26.294,5.715-45.186
										c3.038-31.958-24.741,22.897-24.741,22.897s0.478,7.158,1.272,15.158C211.238,445.52,217.49,447.697,223.965,448.824z"/>
								</g>
								<path style="fill:#081A47;" d="M208.533,460.005c0,0,0.449,5.126,1.805,5.278c1.357,0.152,46.279,4.406,17.189-4.058
									C227.527,461.225,235.966,465.905,208.533,460.005z"/>
							</g>
							<path style="fill:#71C6C6;" d="M223.667,323.534c-13.328-0.668-26.584-1.471-39.921-1.701
								c7.1,38.764,17.671,116.298,17.671,116.298s16.333,7.467,29.259,1.243c0,0,6.153-60.505,7.067-115.503
								C233.048,323.909,228.347,323.769,223.667,323.534z"/>
						</g>
						<g>
							<g>
								<g>
									<path style="fill:#D66C68;" d="M165.436,433.594c0,0,2.408,36.082,5.4,36.789c10.25,2.42,45.525,5.008,11.762-3.459
										c0,0,4.54-24.269,7.579-56.227C193.215,378.739,165.436,433.594,165.436,433.594z"/>
									<path style="fill:#B25757;" d="M184.462,455.883c1.598-10.093,3.918-26.294,5.715-45.186
										c3.038-31.958-24.741,22.897-24.741,22.897s0.478,7.157,1.272,15.158C171.735,452.579,177.987,454.756,184.462,455.883z"/>
								</g>
								<path style="fill:#081A47;" d="M169.029,467.065c0,0,0.449,5.126,1.805,5.278c1.357,0.152,46.279,4.406,17.189-4.058
									C188.024,468.285,196.463,472.964,169.029,467.065z"/>
							</g>
							<path style="fill:#92DFDC;" d="M180.554,321.781c-9.296-0.093-18.592-0.152-27.888-0.199
								c2.809,41.457,6.842,123.482,6.842,123.482s10.995,11.387,31.747,3.741c0,0,9.509-67.645,17.258-126.054
								C199.204,322.282,189.902,321.875,180.554,321.781z"/>
						</g>
					</g>
					<g>
						<g>
							<g>
								<path style="fill:#FFFFFF;" d="M208.912,167.336c0,0,23.072,0.131,28.205,26.497c3.733,13.533,9.1,27.766,9.1,27.766
									l17.033-38.5l18.667,4.9c0,0-16.333,64.866-36.866,64.866c-20.533,0-33.366-54.6-33.366-54.6L208.912,167.336z"/>
								<path style="opacity:0.5;fill:#CEE2F9;" d="M263.25,183.1l-17.033,38.5c0,0-5.367-14.233-9.1-27.766
									c-0.023-0.117-0.052-0.225-0.076-0.342c-5.93,10.716-10.805,22.101-15.896,33.189c5.753,13.268,13.918,26.185,23.905,26.185
									c20.533,0,36.866-64.866,36.866-64.866L263.25,183.1z"/>
							</g>
							<g>
								<g>
									<polygon style="fill:#061533;" points="253.217,173.066 315.75,176.8 309.683,270.599 245.751,266.866 									"/>
									<g>
										<path style="fill:#10458F;" d="M313.535,211.042l1.808-27.956c-22.465,9.781-44.167,21.195-65.565,33.18l-2.089,26.239
											C270.299,233.168,292.87,223.762,313.535,211.042z"/>
										<path style="fill:#10458F;" d="M312.246,230.976l0.51-7.89c-20.869,12.134-43.463,21.249-65.952,30.549l-0.772,9.702
											C268.156,252.782,289.471,240.113,312.246,230.976z"/>
									</g>
									<g style="opacity:0.3;">
										<path style="fill:#AAC3FF;" d="M269.374,241.296l22.667-39.667c0,0-3.091-6.697,0-9.273
											c3.091-2.576,5.151,7.212,5.151,7.212s8.758-2.576,8.758,1.03c0,3.606-9.273,3.606-9.273,3.606l-22.152,40.182
											c0,0,7.212,5.152,2.061,8.758c-5.152,3.606-7.727-5.667-7.727-5.667s-8.243,3.606-7.727-4.121
											C261.647,235.629,269.374,241.296,269.374,241.296z"/>
									</g>
								</g>
								<path style="fill:#D66C68;" d="M278.884,174.466c1.711,0,5.6,0.467,5.6,0.467s-6.503,19.654,2.8,0.156c0,0-4.2,26.6,3.578,0
									c0,0,1.089,26.289,3.578,0.467c0,0,3.593,20.29,2.956-2.178C296.407,170.135,284.328,169.333,278.884,174.466z"/>
							</g>
						</g>
						<g>
							<path style="fill:#FFFFFF;" d="M168.623,162.985l-6.857,1.164c0,0,0.233,3.346-0.317,3.649
								c-2.429,1.339-3.55,1.209-7.012,2.564c-13.051,5.107-8.067,12.492-6.219,26.66c1.867,14.311,13.067,36.244,13.067,36.244
								s-22.555,44.8-23.8,141.865c0,0,24.796,10.771,67.355,7.933l3.111-52.266l2.8,52.266c0,0,19.174,3.655,37.333-11.667
								c0,0-14.871-99.421-18.2-131.599c-3.405-32.912,1.661-48.156-1.678-62.628c-1.702-7.377-28.373-11.917-28.373-11.917
								l3.972,57.313L168.623,162.985z"/>
							<path style="opacity:0.5;fill:#CEE2F9;" d="M186.233,235.684c-12.806-15.558-25.339-31.509-35.607-48.892
								c-1.588-2.687-3.165-5.455-4.685-8.287c-0.864,4.511,1.219,10.399,2.277,18.516c1.867,14.311,13.066,36.244,13.066,36.244
								s-22.555,44.8-23.8,141.865c0,0,24.796,10.771,67.355,7.933l3.111-52.266l2.8,52.266c0,0,19.175,3.655,37.333-11.667
								c0,0-7.343-49.091-12.864-89.447C217.094,268.644,200.59,253.128,186.233,235.684z"/>
						</g>
						<g>
							<g>
								<path style="fill:#D66C68;" d="M120.038,232.533c0,0,33.78,20.488,38.136,17.999c4.355-2.489,4.355-8.089,4.355-8.089
									s22.4,14.933,0-3.111c0,0,23.644,4.978,0.622-3.733c0,0,20.533-2.178-1.867-2.333c0,0,19.102-10.102-1.74-2.637
									c-3.071,1.436-3.649,8.251-3.649,8.251l-25.703-20.309L120.038,232.533z"/>
								<g>
									<g>
										<path style="fill:#FFFFFF;" d="M169.685,167.933c0,0-13.888-5.175-31.266,9.333
											c-17.378,14.508-35.547,36.41-30.022,45.889c5.525,9.478,38.698,26.979,38.698,26.979l7.968-15.779l-23.644-19.289
											C131.418,215.066,169.134,185.769,169.685,167.933z"/>
									</g>
								</g>
							</g>
							<g>
								<path style="fill:#AAC3FF;" d="M162.003,166.579l-2.405,19.327l-0.262-0.278l14.745-1.247l0.801-0.068l-0.49,0.644
									l-6.372,8.368l-0.069-0.599l18.103,14.706c6.037,4.898,12.066,9.807,18.067,14.749l-0.803,0.278l3.919-17.393l3.972-17.381
									l0.162,0.385l-7.909-4.975l-0.574-0.361l0.651-0.172l11.002-2.911l-0.112,0.24l-5.516-12.556l5.833,12.412l0.086,0.183
									l-0.198,0.057l-10.939,3.142l0.077-0.533l7.979,4.861l0.217,0.132l-0.055,0.253l-3.783,17.423l-3.836,17.411l-0.174,0.788
									l-0.63-0.51c-6.042-4.893-12.055-9.821-18.06-14.758l-18.025-14.801l-0.328-0.269l0.259-0.331l6.49-8.277l0.311,0.576
									l-14.762,1.023l-0.308,0.021l0.045-0.3L162.003,166.579z"/>
							</g>
						</g>
					</g>
				</g>
			</g>
			<g>
				<g>
					
						<ellipse transform="matrix(0.7071 -0.7071 0.7071 0.7071 5.7887 219.8072)" style="fill:#FFFFFF;" cx="268.225" cy="102.916" rx="39.466" ry="39.466"/>
					<polygon style="fill:#FFFFFF;" points="244.362,125.861 237.019,146.971 257.211,132.286 					"/>
				</g>
				<g>
					<g>
						<g>
							<path style="fill:#FFBDBA;" d="M256.155,112.547c-2.446,3.566-7.319,4.474-10.885,2.028l-0.43-0.295
								c-3.566-2.446-4.474-7.319-2.028-10.885l16.829-24.536c2.446-3.566,7.319-4.474,10.885-2.028l0.43,0.295
								c3.566,2.446,4.474,7.319,2.028,10.885L256.155,112.547z"/>
							<path style="fill:#D66C68;" d="M264.127,100.925l8.857-12.913c2.446-3.566,1.538-8.44-2.028-10.885l-0.431-0.295
								c-3.566-2.446-8.439-1.538-10.885,2.028l-8.857,12.914L264.127,100.925z"/>
						</g>
						<path style="opacity:0.3;fill:#FFFFFF;" d="M250.609,104.945c-0.652,0.951-1.952,1.193-2.903,0.541l0,0
							c-0.951-0.652-1.193-1.952-0.541-2.903l15.057-21.953c0.652-0.951,1.952-1.193,2.903-0.541l0,0
							c0.951,0.652,1.193,1.952,0.541,2.903L250.609,104.945z"/>
					</g>
					<g>
						<g>
							<path style="fill:#FFBDBA;" d="M273.947,97.237c0.425-4.303,4.257-7.448,8.561-7.023l0.519,0.051
								c4.303,0.425,7.448,4.257,7.023,8.561l-2.922,29.609c-0.425,4.303-4.257,7.447-8.561,7.023l-0.52-0.051
								c-4.303-0.425-7.447-4.257-7.023-8.561L273.947,97.237z"/>
							<path style="fill:#D66C68;" d="M272.563,111.262l-1.538,15.583c-0.425,4.303,2.72,8.136,7.023,8.561l0.519,0.051
								c4.303,0.425,8.136-2.72,8.561-7.023l1.538-15.584L272.563,111.262z"/>
						</g>
						<path style="opacity:0.3;fill:#FFFFFF;" d="M276.963,101.225c0.113-1.147,1.135-1.986,2.283-1.873l0,0
							c1.147,0.113,1.986,1.135,1.873,2.283l-2.614,26.492c-0.113,1.148-1.135,1.986-2.283,1.873l0,0
							c-1.147-0.113-1.986-1.135-1.873-2.283L276.963,101.225z"/>
					</g>
				</g>
			</g>
		</g>
	</g>
</g>
</svg>
